# xmcd CD database file
#
# Track frame offsets:
#	182
#	19355
#	40767
#	63567
#	79655
#	98255
#	117505
#	136130
#	157805
#	177942
#	196355
#	218667
#	236375
#
# Disc length: 3515 seconds
#
# Revision: 6
# Processed by: cddbd v1.5.2PL0 Copyright (c) Steve Scherf et al.
# Submitted via: CDex 1.51
#
DISCID=a00db90d
DTITLE=Michel Sardou - Ses plus grandes chansons
DYEAR=1984
DGENRE=Chanson
TTITLE0=Michel Sardou - Etre une femme
TTITLE1=Michel Sardou - Si j'étais
TTITLE2=Michel Sardou - Je vole
TTITLE3=Michel Sardou - Les années 30
TTITLE4=Michel Sardou - La java de Broadway
TTITLE5=Michel Sardou - Il était là
TTITLE6=Michel Sardou - Musica
TTITLE7=Michel Sardou - K7
TTITLE8=Michel Sardou - Victoria
TTITLE9=Michel Sardou - Je viens du sud
TTITLE10=Michel Sardou - Dix ans plus tôt
TTITLE11=Michel Sardou - En chantant
TTITLE12=Michel Sardou - Les lacs du Connemara
EXTD=\n YEAR: 1984
EXTT0=
EXTT1=
EXTT2=
EXTT3=
EXTT4=
EXTT5=
EXTT6=
EXTT7=
EXTT8=
EXTT9=
EXTT10=
EXTT11=
EXTT12=
PLAYORDER=
